<svg width="800px" height="800px" viewBox="0 0 70 70" version="1.1" xmlns="http://www.w3.org/2000/svg" xmlns:xlink="http://www.w3.org/1999/xlink"><defs><rect id="path-1" x="0" y="0" width="70" height="70"></rect></defs><g id="Page-1" stroke="none" stroke-width="1" fill="none" fill-rule="evenodd"><g id="Artboard" transform="translate(-45.000000, -82.000000)"><g id="Group" transform="translate(45.000000, 82.000000)"><g id="qr-code"><path d="M0,0 L70,0 L70,70 L0,70 L0,0 Z M5,5 L5,65 L65,65 L65,5 L5,5 Z" id="Shape" fill="#000000" fill-rule="nonzero"></path><path d="M14,14 L31,14 L31,31 L14,31 L14,14 Z M19,19 L19,26 L26,26 L26,19 L19,19 Z" id="Shape" fill="#000000" fill-rule="nonzero"></path><path d="M39,14 L56,14 L56,31 L39,31 L39,14 Z M44,19 L44,26 L51,26 L51,19 L44,19 Z" id="Shape" fill="#000000" fill-rule="nonzero"></path><path d="M14,39 L31,39 L31,56 L14,56 L14,39 Z M19,44 L19,51 L26,51 L26,44 L19,44 Z" id="Shape" fill="#000000" fill-rule="nonzero"></path><polygon id="Path" fill="#000000" points="56 39 56 44 51 44 51 48 44 48 44 44 39 44 39 39"></polygon><polygon id="Path" fill="#000000" points="44 51 48 51 48 56 44 56"></polygon><polygon id="Path" fill="#000000" points="39 51 42 51 42 56 39 56"></polygon><polygon id="Path" fill="#000000" points="35 42 39 42 39 46 35 46"></polygon><polygon id="Path" fill="#000000" points="48 35 53 35 53 39 48 39"></polygon><polygon id="Path" fill="#000000" points="56 56 60 56 60 60 56 60"></polygon><polygon id="Path" fill="#000000" points="51 56 56 56 56 60 51 60"></polygon><polygon id="Path" fill="#000000" points="48 56 51 56 51 60 48 60"></polygon><polygon id="Path" fill="#000000" points="56 48 60 48 60 52 56 52"></polygon><polygon id="Path" fill="#000000" points="35 14 39 14 39 18 35 18"></polygon><polygon id="Path" fill="#000000" points="35 23 39 23 39 27 35 27"></polygon><polygon id="Path" fill="#000000" points="35 31 39 31 39 35 35 35"></polygon></g></g></g></g></svg>